<svg version="1.1" id="Layer_1" xmlns="http://www.w3.org/2000/svg" xmlns:xlink="http://www.w3.org/1999/xlink" x="0px" y="0px"
	 width="100%" viewBox="0 0 2000 1500" enable-background="new 0 0 2000 1500" xml:space="preserve">
<path fill="#000000" opacity="1.000000" stroke="none" 
	d="
M1055.000000,1501.000000 
	C703.333435,1501.000000 352.166870,1501.000000 1.000236,1501.000000 
	C1.000157,1001.000244 1.000157,501.000519 1.000079,1.000571 
	C667.666199,1.000381 1334.332397,1.000381 2000.999023,1.000190 
	C2000.999268,500.999390 2000.999268,1000.998779 2000.999634,1500.999023 
	C1685.833374,1501.000000 1370.666626,1501.000000 1055.000000,1501.000000 
M911.499084,496.877075 
	C893.163696,496.878235 874.828003,496.825195 856.492920,496.898956 
	C843.483459,496.951263 835.600769,502.711151 831.502563,515.002136 
	C777.748169,676.213562 724.001953,837.427612 670.267456,998.645691 
	C669.727173,1000.266541 669.372681,1001.949280 668.792847,1004.122620 
	C689.887695,1004.122620 710.203003,1004.002747 730.514465,1004.225769 
	C734.478516,1004.269348 735.899841,1002.793274 737.008362,999.262756 
	C752.512512,949.880310 768.234741,900.566162 783.638611,851.152588 
	C785.113159,846.422363 787.246643,845.140930 791.963013,845.151245 
	C857.124451,845.293579 922.286621,845.316467 987.447693,845.106567 
	C992.576477,845.090027 994.534607,846.668884 996.023254,851.433899 
	C1011.458252,900.841492 1027.182739,950.158691 1042.682251,999.546265 
	C1043.751587,1002.953491 1045.124146,1004.251892 1048.827393,1004.213928 
	C1067.990479,1004.017212 1087.156860,1004.129700 1106.322021,1004.107422 
	C1107.719360,1004.105835 1109.116577,1003.889343 1110.847168,1003.744995 
	C1110.197144,1001.704773 1109.714966,1000.129028 1109.194336,998.566101 
	C1078.317871,905.886169 1047.442993,813.205811 1016.557190,720.528931 
	C993.721680,652.007935 970.867310,583.493286 948.031921,514.972229 
	C944.032654,502.971832 936.153992,497.123260 923.497131,496.900055 
	C919.831848,496.835419 916.164612,496.881622 911.499084,496.877075 
M1301.484131,889.015808 
	C1338.130249,925.660339 1374.765991,962.315247 1411.431152,998.940613 
	C1418.584229,1006.085999 1425.349121,1006.092163 1432.483032,999.006104 
	C1446.315063,985.266907 1460.123535,971.503662 1473.891846,957.700684 
	C1479.395752,952.182861 1484.767822,946.533447 1491.205322,939.909241 
	C1492.646729,941.980286 1493.502441,943.691284 1494.783813,944.978760 
	C1512.768433,963.048706 1530.878296,980.994629 1548.787720,999.138672 
	C1552.744385,1003.147095 1557.147461,1005.458618 1562.464600,1003.624756 
	C1565.576782,1002.551270 1568.474976,1000.184998 1570.868164,997.797485 
	C1628.552246,940.246826 1686.081665,882.540894 1743.871582,825.096863 
	C1750.593018,818.415588 1751.751953,811.630859 1746.651978,802.977722 
	C1688.271240,703.922913 1630.093628,604.748352 1571.856934,505.608551 
	C1564.841919,493.666595 1553.793579,493.632568 1546.775879,505.568665 
	C1529.234497,535.404358 1511.733154,565.263550 1494.209839,595.109863 
	C1493.132324,596.945068 1492.005371,598.751099 1490.679688,600.936035 
	C1489.425903,598.853271 1488.473511,597.300232 1487.548706,595.730957 
	C1469.808472,565.625732 1452.127563,535.485168 1434.243286,505.465759 
	C1432.539307,502.605743 1429.978149,499.729462 1427.102661,498.201355 
	C1420.614014,494.753235 1414.101074,497.802917 1409.475220,505.677490 
	C1351.070801,605.102356 1292.685547,704.538452 1234.246826,803.943115 
	C1229.637695,811.783081 1229.415039,817.232544 1236.933350,824.607666 
	C1258.463257,845.727234 1279.657715,867.188721 1301.484131,889.015808 
M479.382507,972.500122 
	C479.382507,833.142212 479.382507,693.784241 479.382507,553.811646 
	C534.590210,553.811646 588.801453,553.811646 642.993530,553.811646 
	C642.993530,534.606812 642.993530,516.021057 642.993530,497.255859 
	C512.450256,497.255859 382.261078,497.255859 252.039429,497.255859 
	C252.039429,516.334473 252.039429,535.032776 252.039429,554.237122 
	C306.414795,554.237122 360.323181,554.237122 414.940948,554.237122 
	C414.940948,704.411377 414.940948,854.074463 414.940948,1003.754150 
	C436.727539,1003.754150 457.798950,1003.754150 479.382843,1003.754150 
	C479.382843,993.430237 479.382843,983.465210 479.382507,972.500122 
z"/>
<path fill="#48927E" opacity="1.000000" stroke="none" 
	d="
M911.998657,496.877045 
	C916.164612,496.881622 919.831848,496.835419 923.497131,496.900055 
	C936.153992,497.123260 944.032654,502.971832 948.031921,514.972229 
	C970.867310,583.493286 993.721680,652.007935 1016.557190,720.528931 
	C1047.442993,813.205811 1078.317871,905.886169 1109.194336,998.566101 
	C1109.714966,1000.129028 1110.197144,1001.704773 1110.847168,1003.744995 
	C1109.116577,1003.889343 1107.719360,1004.105835 1106.322021,1004.107422 
	C1087.156860,1004.129700 1067.990479,1004.017212 1048.827393,1004.213928 
	C1045.124146,1004.251892 1043.751587,1002.953491 1042.682251,999.546265 
	C1027.182739,950.158691 1011.458252,900.841492 996.023254,851.433899 
	C994.534607,846.668884 992.576477,845.090027 987.447693,845.106567 
	C922.286621,845.316467 857.124451,845.293579 791.963013,845.151245 
	C787.246643,845.140930 785.113159,846.422363 783.638611,851.152588 
	C768.234741,900.566162 752.512512,949.880310 737.008362,999.262756 
	C735.899841,1002.793274 734.478516,1004.269348 730.514465,1004.225769 
	C710.203003,1004.002747 689.887695,1004.122620 668.792847,1004.122620 
	C669.372681,1001.949280 669.727173,1000.266541 670.267456,998.645691 
	C724.001953,837.427612 777.748169,676.213562 831.502563,515.002136 
	C835.600769,502.711151 843.483459,496.951263 856.492920,496.898956 
	C874.828003,496.825195 893.163696,496.878235 911.998657,496.877045 
M822.500549,789.421936 
	C873.540894,789.421936 924.581238,789.421936 976.134399,789.421936 
	C975.336365,786.747742 974.840698,785.006775 974.298157,783.280640 
	C951.050049,709.310852 927.812927,635.337524 904.511230,561.384521 
	C902.992004,556.563049 902.257690,549.989258 898.833984,547.686890 
	C895.255920,545.280762 888.854187,547.255554 883.711487,546.927734 
	C880.458984,546.720398 878.982056,547.840332 878.153809,550.967529 
	C876.109558,558.686340 873.900452,566.369141 871.492859,573.982727 
	C849.519470,643.469421 827.488220,712.937744 805.483093,782.414429 
	C804.842529,784.436829 804.304932,786.491882 803.463684,789.422363 
	C809.949951,789.422363 815.725525,789.422363 822.500549,789.421936 
z"/>
<path fill="#F031A9" opacity="1.000000" stroke="none" 
	d="
M1301.234131,888.765747 
	C1279.657715,867.188721 1258.463257,845.727234 1236.933350,824.607666 
	C1229.415039,817.232544 1229.637695,811.783081 1234.246826,803.943115 
	C1292.685547,704.538452 1351.070801,605.102356 1409.475220,505.677490 
	C1414.101074,497.802917 1420.614014,494.753235 1427.102661,498.201355 
	C1429.978149,499.729462 1432.539307,502.605743 1434.243286,505.465759 
	C1452.127563,535.485168 1469.808472,565.625732 1487.548706,595.730957 
	C1488.473511,597.300232 1489.425903,598.853271 1490.679688,600.936035 
	C1492.005371,598.751099 1493.132324,596.945068 1494.209839,595.109863 
	C1511.733154,565.263550 1529.234497,535.404358 1546.775879,505.568665 
	C1553.793579,493.632568 1564.841919,493.666595 1571.856934,505.608551 
	C1630.093628,604.748352 1688.271240,703.922913 1746.651978,802.977722 
	C1751.751953,811.630859 1750.593018,818.415588 1743.871582,825.096863 
	C1686.081665,882.540894 1628.552246,940.246826 1570.868164,997.797485 
	C1568.474976,1000.184998 1565.576782,1002.551270 1562.464600,1003.624756 
	C1557.147461,1005.458618 1552.744385,1003.147095 1548.787720,999.138672 
	C1530.878296,980.994629 1512.768433,963.048706 1494.783813,944.978760 
	C1493.502441,943.691284 1492.646729,941.980286 1491.205322,939.909241 
	C1484.767822,946.533447 1479.395752,952.182861 1473.891846,957.700684 
	C1460.123535,971.503662 1446.315063,985.266907 1432.483032,999.006104 
	C1425.349121,1006.092163 1418.584229,1006.085999 1411.431152,998.940613 
	C1374.765991,962.315247 1338.130249,925.660339 1301.234131,888.765747 
M1431.609985,550.930481 
	C1428.585327,545.843140 1425.560669,540.755737 1422.094482,534.925598 
	C1367.773926,627.349670 1313.857910,719.085388 1260.450806,809.955261 
	C1314.833008,864.388245 1368.824463,918.430054 1422.180298,971.835693 
	C1438.452148,955.699890 1455.103027,939.188293 1471.938721,922.493347 
	C1470.869995,921.373840 1469.653442,920.047058 1468.381958,918.775269 
	C1437.163940,887.548645 1405.940308,856.327515 1374.716919,825.106201 
	C1366.278931,816.668762 1365.873169,813.449158 1371.993652,803.041138 
	C1405.900024,745.382629 1439.788818,687.713806 1473.782593,630.106995 
	C1475.431641,627.312683 1475.464844,625.319458 1473.798462,622.518738 
	C1459.760620,598.924622 1445.891113,575.230408 1431.609985,550.930481 
M1540.067017,891.567444 
	C1529.720703,901.904602 1519.374390,912.241760 1509.343384,922.264099 
	C1526.307251,939.216614 1543.000977,955.899231 1559.805298,972.692383 
	C1560.090088,972.433716 1560.721069,971.906616 1561.300293,971.327942 
	C1613.762695,918.920959 1666.195190,866.484009 1718.753296,814.173218 
	C1721.489258,811.450195 1720.771484,809.720093 1719.179810,807.015076 
	C1666.605835,717.664978 1614.098633,628.275330 1561.573242,538.896606 
	C1560.941528,537.821777 1560.199829,536.811768 1559.243652,535.370972 
	C1558.018433,537.317932 1557.020020,538.816956 1556.107788,540.366821 
	C1540.408569,567.042358 1524.872803,593.816467 1508.886597,620.318848 
	C1506.030029,625.054504 1506.364502,628.233215 1509.039673,632.755981 
	C1542.674072,689.616821 1576.046997,746.632141 1609.638306,803.518494 
	C1614.424561,811.623962 1613.701294,818.158813 1607.085571,824.673523 
	C1584.764282,846.654053 1562.718262,868.914124 1540.067017,891.567444 
M1471.970337,683.479370 
	C1446.964355,726.004700 1421.958252,768.529968 1397.460815,810.190369 
	C1429.041626,841.796936 1460.072144,872.852661 1490.424316,903.229675 
	C1521.256592,872.398315 1552.400513,841.255371 1583.768799,809.888000 
	C1553.074097,757.693848 1522.018188,704.885742 1490.705933,651.641357 
	C1484.302124,662.499573 1478.306152,672.666443 1471.970337,683.479370 
z"/>
<path fill="#48937E" opacity="1.000000" stroke="none" 
	d="
M479.382690,973.000122 
	C479.382843,983.465210 479.382843,993.430237 479.382843,1003.754150 
	C457.798950,1003.754150 436.727539,1003.754150 414.940948,1003.754150 
	C414.940948,854.074463 414.940948,704.411377 414.940948,554.237122 
	C360.323181,554.237122 306.414795,554.237122 252.039429,554.237122 
	C252.039429,535.032776 252.039429,516.334473 252.039429,497.255859 
	C382.261078,497.255859 512.450256,497.255859 642.993530,497.255859 
	C642.993530,516.021057 642.993530,534.606812 642.993530,553.811646 
	C588.801453,553.811646 534.590210,553.811646 479.382507,553.811646 
	C479.382507,693.784241 479.382507,833.142212 479.382690,973.000122 
z"/>
<path fill="#000000" opacity="1.000000" stroke="none" 
	d="
M822.000854,789.422119 
	C815.725525,789.422363 809.949951,789.422363 803.463684,789.422363 
	C804.304932,786.491882 804.842529,784.436829 805.483093,782.414429 
	C827.488220,712.937744 849.519470,643.469421 871.492859,573.982727 
	C873.900452,566.369141 876.109558,558.686340 878.153809,550.967529 
	C878.982056,547.840332 880.458984,546.720398 883.711487,546.927734 
	C888.854187,547.255554 895.255920,545.280762 898.833984,547.686890 
	C902.257690,549.989258 902.992004,556.563049 904.511230,561.384521 
	C927.812927,635.337524 951.050049,709.310852 974.298157,783.280640 
	C974.840698,785.006775 975.336365,786.747742 976.134399,789.421936 
	C924.581238,789.421936 873.540894,789.421936 822.000854,789.422119 
z"/>
<path fill="#010001" opacity="1.000000" stroke="none" 
	d="
M1431.790527,551.248413 
	C1445.891113,575.230408 1459.760620,598.924622 1473.798462,622.518738 
	C1475.464844,625.319458 1475.431641,627.312683 1473.782593,630.106995 
	C1439.788818,687.713806 1405.900024,745.382629 1371.993652,803.041138 
	C1365.873169,813.449158 1366.278931,816.668762 1374.716919,825.106201 
	C1405.940308,856.327515 1437.163940,887.548645 1468.381958,918.775269 
	C1469.653442,920.047058 1470.869995,921.373840 1471.938721,922.493347 
	C1455.103027,939.188293 1438.452148,955.699890 1422.180298,971.835693 
	C1368.824463,918.430054 1314.833008,864.388245 1260.450806,809.955261 
	C1313.857910,719.085388 1367.773926,627.349670 1422.094482,534.925598 
	C1425.560669,540.755737 1428.585327,545.843140 1431.790527,551.248413 
z"/>
<path fill="#010001" opacity="1.000000" stroke="none" 
	d="
M1540.317017,891.317383 
	C1562.718262,868.914124 1584.764282,846.654053 1607.085571,824.673523 
	C1613.701294,818.158813 1614.424561,811.623962 1609.638306,803.518494 
	C1576.046997,746.632141 1542.674072,689.616821 1509.039673,632.755981 
	C1506.364502,628.233215 1506.030029,625.054504 1508.886597,620.318848 
	C1524.872803,593.816467 1540.408569,567.042358 1556.107788,540.366821 
	C1557.020020,538.816956 1558.018433,537.317932 1559.243652,535.370972 
	C1560.199829,536.811768 1560.941528,537.821777 1561.573242,538.896606 
	C1614.098633,628.275330 1666.605835,717.664978 1719.179810,807.015076 
	C1720.771484,809.720093 1721.489258,811.450195 1718.753296,814.173218 
	C1666.195190,866.484009 1613.762695,918.920959 1561.300293,971.327942 
	C1560.721069,971.906616 1560.090088,972.433716 1559.805298,972.692383 
	C1543.000977,955.899231 1526.307251,939.216614 1509.343384,922.264099 
	C1519.374390,912.241760 1529.720703,901.904602 1540.317017,891.317383 
z"/>
<path fill="#010001" opacity="1.000000" stroke="none" 
	d="
M1472.140137,683.156372 
	C1478.306152,672.666443 1484.302124,662.499573 1490.705933,651.641357 
	C1522.018188,704.885742 1553.074097,757.693848 1583.768799,809.888000 
	C1552.400513,841.255371 1521.256592,872.398315 1490.424316,903.229675 
	C1460.072144,872.852661 1429.041626,841.796936 1397.460815,810.190369 
	C1421.958252,768.529968 1446.964355,726.004700 1472.140137,683.156372 
z"/>
</svg>